{"title":"The Librarians (2014) S1-S2 And Movies 1080p ENG,SPA x265 HEVC [","uid":13366302,"size":13050348478,"categoryP":"video","categoryS":"hd___tv_shows","magnet":"?xt=urn:btih:d342687343a95abee270ff3526ce9055ac6ddb66&amp;dn=The+Librarians+%282014%29+S1-S2+And+Movies+1080p+ENG%2CSPA+x265+HEVC+%5B&amp;tr=udp%3A%2F%2Ftracker.leechers-paradise.org%3A6969&amp;tr=udp%3A%2F%2Fzer0day.ch%3A1337&amp;tr=udp%3A%2F%2Fopen.demonii.com%3A1337&amp;tr=udp%3A%2F%2Ftracker.coppersurfer.tk%3A6969&amp;tr=udp%3A%2F%2Fexodus.desync.com%3A6969","seeders":3,"leechers":7,"uploader":"ByteShareReUp","files":26,"time":1454169953,"description":"A UniTeam Release (UTR): \nhttp://extraimago.com/images/2015/09/02/gv8mpWw.png\r\n\r\nThe UniTeam release page: https://kat.cr/community/show/hevc-x265-club-uniteam-releases-thread-\r\n\r\n96931/?page=1000\r\nFor more of my uploads please go to my release page: https://kat.cr/community/show/byteshare-\r\n\r\nreleases/?page=1000\r\nor use an RSS feed with your bittorrent application of choice: https://kat.cr/usearch/byteshare/?\r\n\r\nrss=1\r\n\r\nScreenshots: \nhttps://yuq.me/users/48/311/53dbFigcKw.jpg \nhttps://yuq.me/users/48/311/ptSyZN5IUF.jpg \nhttps://yuq.me/users/48/311/3fgcF4PyhH.jpg \nhttps://yuq.me/users/48/311/D9QCju84vq.jpg \nhttps://yuq.me/users/48/311/I8z25XQGPc.jpg\r\n\r\nFile Info:\r\nFormat/Info : High Efficiency Video Coding\r\nFormat profile :   @Main\r\nCodec ID : V_MPEGH/ISO/HEVC\r\nDuration : 42mn 15s\r\nBit rate : 1 180 Kbps\r\nWidth : 1 920 pixels\r\nHeight : 1 076 pixels\r\nDisplay aspect ratio : 16:9\r\nOriginal display aspect rat : 16:9\r\nFrame rate mode : Constant\r\nFrame rate : 23.976 (24000/1001) fps\r\nColor space : YUV\r\nChroma subsampling : 4:2:0\r\nBit depth : 8 bits\r\nBits/(Pixel*Frame) : 0.024\r\nStream size : 357 MiB (75%)\r\nTitle : The Librarians S02E01 And the Drowned Book\r\nWriting library : x265 1.7:[Windows][GCC 4.9.0][64 bit]\r\nEncoding settings : wpp / ctu=64 / min-cu-size=8 / max-tu-size=32 / tu-intra-depth=3 / tu-inter-\r\n\r\ndepth=3 / me=3 / subme=4 / merange=57 / no-rect / no-amp / max-merge=4 / temporal-mvp / no-early-\r\n\r\nskip / rdpenalty=0 / no-tskip / no-tskip-fast / strong-intra-smoothing / no-lossless / no-cu-\r\n\r\nlossless / no-constrained-intra / no-fast-intra / open-gop / no-temporal-layers / interlace=0 / \r\n\r\nkeyint=240 / min-keyint=24 / scenecut=40 / rc-lookahead=40 / lookahead-slices=0 / bframes=8 / \r\n\r\nbframe-bias=0 / b-adapt=2 / ref=5 / weightp / weightb / aq-mode=1 / aq-strength=1.00 / cbqpoffs=0 / \r\n\r\ncrqpoffs=0 / rd=6 / psy-rd=0.30 / rdoq-level=2 / psy-rdoq=1.00 / signhide / deblock / sao / no-sao-\r\n\r\nnon-deblock / b-pyramid / cutree / rc=crf / crf=24.0 / qcomp=0.60 / qpmin=0 / qpmax=51 / qpstep=4 / \r\n\r\nipratio=1.40 / pbratio=1.30\r\nLanguage : English\r\nDefault : Yes\r\nForced : No\r\nColor range : Limited\r\nColor primaries : BT.709\r\nTransfer characteristics : BT.709\r\nMatrix coefficients : BT.709\r\n\r\nAudio #1\r\nID : 2\r\nFormat : AAC\r\nFormat/Info : Advanced Audio Codec\r\nFormat profile : HE-AAC / LC\r\nCodec ID : A_AAC\r\nDuration : 42mn 14s\r\nBit rate : 256 Kbps\r\nChannel(s) : 6 channels\r\nSampling rate : 48.0 KHz / 24.0 KHz\r\nFrame rate : 23.438 fps (1024 spf)\r\nCompression mode : Lossy\r\nDelay relative to video : -105ms\r\nStream size : 77.4 MiB (16%)\r\nTitle : Surround\r\nLanguage : English\r\nDefault : Yes\r\nForced : No\r\n\r\nAudio #2\r\nID : 3\r\nFormat : MPEG Audio\r\nFormat version : Version 1\r\nFormat profile : Layer 3\r\nMode : Joint stereo\r\nMode extension : MS Stereo\r\nCodec ID : A_MPEG/L3\r\nCodec ID/Hint : MP3\r\nDuration : 42mn 14s\r\nBit rate mode : Constant\r\nBit rate : 128 Kbps\r\nChannel(s) : 2 channels\r\nSampling rate : 44.1 KHz\r\nFrame rate : 38.281 fps (1152 spf)\r\nCompression mode : Lossy\r\nDelay relative to video : -105ms\r\nStream size : 38.7 MiB (8%)\r\nTitle : SPA Dub\r\nLanguage : Spanish\r\nDefault : No\r\nForced : No\r\n\r\nText #1\r\nID : 4\r\nFormat : ASS\r\nCodec ID : S_TEXT/ASS\r\nCodec ID/Info : Advanced Sub Station Alpha\r\nDuration : 41mn 31s\r\nBit rate : 196 bps\r\nCount of elements : 892\r\nCompression mode : Lossless\r\nStream size : 59.9 KiB (0%)\r\nLanguage : English\r\nDefault : No\r\nForced : No\r\n\r\nText #2\r\nID : 5\r\nFormat : ASS\r\nCodec ID : S_TEXT/ASS\r\nCodec ID/Info : Advanced Sub Station Alpha\r\nDuration : 41mn 31s\r\nBit rate : 196 bps\r\nCount of elements : 892\r\nCompression mode : Lossless\r\nStream size : 59.9 KiB (0%)\r\nTitle : CC\r\nLanguage : English\r\n\r\nPlease seed &amp; leave feedback","torrent":{"xt":"urn:btih:d342687343a95abee270ff3526ce9055ac6ddb66","amp;dn":"The+Librarians+%282014%29+S1-S2+And+Movies+1080p+ENG%2CSPA+x265+HEVC+%5B","amp;tr":["udp%3A%2F%2Ftracker.leechers-paradise.org%3A6969","udp%3A%2F%2Fzer0day.ch%3A1337","udp%3A%2F%2Fopen.demonii.com%3A1337","udp%3A%2F%2Ftracker.coppersurfer.tk%3A6969","udp%3A%2F%2Fexodus.desync.com%3A6969"],"infoHash":"d342687343a95abee270ff3526ce9055ac6ddb66","infoHashBuffer":{"type":"Buffer","data":[211,66,104,115,67,169,90,190,226,112,255,53,38,206,144,85,172,109,219,102]},"announce":[],"urlList":[]}}